<?xml version="1.0" standalone="no"?>
<!DOCTYPE svg PUBLIC "-//W3C//DTD SVG 20010904//EN"
 "http://www.w3.org/TR/2001/REC-SVG-20010904/DTD/svg10.dtd">
<svg version="1.0" xmlns="http://www.w3.org/2000/svg"
 width="128.000000pt" height="128.000000pt" viewBox="0 0 128.000000 128.000000"
 preserveAspectRatio="xMidYMid meet">

<g transform="translate(0.000000,128.000000) scale(0.100000,-0.100000)"
fill="#000000" stroke="none">
<path d="M502 1245 c-171 -37 -341 -171 -416 -327 -87 -181 -87 -365 0 -546
52 -108 168 -224 276 -276 181 -87 365 -87 546 0 108 52 224 168 276 276 87
181 87 365 0 546 -52 108 -168 224 -276 276 -131 63 -270 80 -406 51z m-32
-570 c0 -108 -1 -115 -20 -115 -19 0 -20 7 -20 115 0 108 1 115 20 115 19 0
20 -7 20 -115z m430 48 l1 -68 27 33 c15 18 35 32 45 32 23 0 22 -9 -8 -40
l-26 -27 31 -38 c28 -35 29 -40 14 -48 -18 -10 -27 -3 -66 54 l-17 24 0 -42
c-1 -36 -4 -43 -21 -43 -19 0 -20 7 -20 115 0 108 1 115 20 115 18 0 20 -7 20
-67z m-682 -8 c10 -10 -10 -22 -28 -18 -29 8 -26 -21 4 -41 57 -37 34 -100
-33 -94 -25 2 -37 9 -39 20 -3 15 2 17 27 12 41 -8 41 13 1 48 -36 31 -37 41
-9 69 15 15 28 19 47 14 15 -4 29 -8 30 -10z m167 -10 c32 -31 33 -82 3 -120
-18 -23 -26 -26 -60 -22 l-38 5 0 -39 c0 -35 -3 -39 -25 -39 l-25 0 0 115 0
115 40 -2 c22 -1 43 2 47 5 13 13 34 7 58 -18z m423 9 c19 -13 22 -24 22 -85
0 -62 -2 -69 -20 -69 -18 0 -20 7 -20 54 0 64 -19 92 -51 76 -15 -9 -19 -22
-19 -70 0 -53 -2 -60 -20 -60 -18 0 -20 7 -20 81 l0 82 28 -6 c15 -3 34 -2 42
4 21 12 32 11 58 -7z m-268 -43 c0 -62 7 -81 31 -81 25 0 39 30 39 84 0 39 3
46 20 46 18 0 20 -7 20 -80 0 -73 -2 -80 -20 -80 -11 0 -20 5 -20 10 0 7 -6 7
-19 0 -26 -14 -64 -13 -79 2 -7 7 -12 40 -12 80 0 61 2 68 20 68 17 0 20 -7
20 -49z m620 -29 c0 -12 -19 -27 -55 -45 -64 -31 -65 -31 -65 -14 0 7 21 23
47 36 l48 23 -48 24 c-26 14 -47 31 -47 39 0 12 14 8 60 -15 39 -20 60 -36 60
-48z"/>
<path d="M302 688 c-13 -13 -16 -56 -6 -82 7 -18 49 -22 59 -5 4 6 7 26 8 45
1 47 -33 70 -61 42z"/>
</g>
</svg>
